<?xml version="1.0" encoding="utf-8"?>
<!-- Generator: Adobe Illustrator 23.0.3, SVG Export Plug-In . SVG Version: 6.00 Build 0)  -->
<svg version="1.1" xmlns="http://www.w3.org/2000/svg" xmlns:xlink="http://www.w3.org/1999/xlink" x="0px" y="0px"
	 viewBox="0 0 253.7 221" style="enable-background:new 0 0 253.7 221;" xml:space="preserve">
<style type="text/css">
	.st0{display:none;}
	.st1{fill:#FFC107;}
	.st2{display:inline;fill:none;stroke:#FFC107;stroke-width:3;stroke-linecap:round;stroke-linejoin:round;stroke-miterlimit:10;}
	.st3{fill:none;stroke:#000000;stroke-width:3;stroke-linecap:round;stroke-linejoin:round;stroke-miterlimit:10;}
	.st4{fill:none;stroke:#FFC107;stroke-width:2;stroke-linecap:round;stroke-linejoin:round;stroke-miterlimit:10;}
</style>
<g id="BACKGROUND" class="st0">
</g>
<g id="Layer_3">
	<path class="st1" d="M9.6,59.6l49.9,142.7c2.7,7.8,11,12.3,19.1,10.4l130.2-31.2c5.6-1.4,10.1-5.6,11.8-11.2l23.8-80.5
		c1.2-4,0.8-8.2-1.1-11.9l-31-61.1C209,10.4,202,6.9,195,8.1L22.1,38.3C12.3,40,6.3,50.2,9.6,59.6z"/>
</g>
<g id="OBJECTS_1_">
	<g class="st0">
		<g>
			<line class="st2" x1="41.3" y1="171.3" x2="41.3" y2="180.6"/>
			<line class="st2" x1="46" y1="176" x2="36.6" y2="176"/>
		</g>
		<g>
			<line class="st2" x1="208.8" y1="32.7" x2="215.4" y2="39.3"/>
			<line class="st2" x1="215.4" y1="32.7" x2="208.8" y2="39.3"/>
		</g>
		<path class="st3" d="M212.8,165.2c0,1.9-1.5,3.4-3.4,3.4c-1.9,0-3.4-1.5-3.4-3.4s1.5-3.4,3.4-3.4
			C211.3,161.8,212.8,163.3,212.8,165.2z"/>
		<path class="st3" d="M20.2,103.8c0,1.9-1.5,3.4-3.4,3.4c-1.9,0-3.4-1.5-3.4-3.4c0-1.9,1.5-3.4,3.4-3.4
			C18.7,100.4,20.2,101.9,20.2,103.8z"/>
		<path class="st4" d="M19.7,81.7l32.9,78.9c2.1,5.1,6.2,9,11.3,10.9l49.3,18.5c4.6,1.7,9.6,1.7,14.2-0.1l50.9-19.8
			c5.2-2,9.3-6.1,11.3-11.3L221,78.8c3.1-7.9,0.8-16.9-5.6-22.3L170.2,18c-4.4-3.8-10.3-5.4-16-4.5l-90,14.4
			c-3.8,0.6-7.3,2.3-10.2,4.9L24.7,59.4C18.5,65,16.5,74,19.7,81.7z"/>
	</g>
</g>
</svg>
