<?xml version="1.0" encoding="utf-8"?>
<!-- Generator: Adobe Illustrator 23.0.3, SVG Export Plug-In . SVG Version: 6.00 Build 0)  -->
<svg version="1.1" id="Layer_1" xmlns="http://www.w3.org/2000/svg" xmlns:xlink="http://www.w3.org/1999/xlink" x="0px" y="0px"
	 viewBox="0 0 184 187.3" style="enable-background:new 0 0 184 187.3;" xml:space="preserve">
<style type="text/css">
	.st0{display:none;}
	.st1{display:inline;fill:#FFC107;}
	.st2{fill:none;stroke:#FFC107;stroke-width:3;stroke-linecap:round;stroke-linejoin:round;stroke-miterlimit:10;}
	.st3{fill:none;stroke:#000000;stroke-width:3;stroke-linecap:round;stroke-linejoin:round;stroke-miterlimit:10;}
	.st4{display:none;fill:none;stroke:#FFC107;stroke-width:2;stroke-linecap:round;stroke-linejoin:round;stroke-miterlimit:10;}
</style>
<g id="BACKGROUND" class="st0">
</g>
<g id="Layer_3" class="st0">
	<path class="st1" d="M223.1,173.2l42.5,121.4c2.3,6.7,9.3,10.5,16.2,8.8l110.8-26.6c4.8-1.1,8.6-4.8,10-9.5l20.2-68.5
		c1-3.4,0.7-7-0.9-10.1l-26.3-52c-2.7-5.4-8.7-8.4-14.7-7.3l-147.1,25.7C225.4,156.6,220.3,165.2,223.1,173.2z"/>
</g>
<g>
	<g>
		<line class="st2" x1="17.7" y1="162.7" x2="17.7" y2="172"/>
		<line class="st2" x1="22.4" y1="167.4" x2="13" y2="167.4"/>
	</g>
	<g>
		<line class="st2" x1="156.4" y1="25.2" x2="163" y2="31.8"/>
		<line class="st2" x1="163" y1="25.2" x2="156.4" y2="31.8"/>
	</g>
	<path class="st3" d="M171.6,130.4c0,1.9-1.5,3.4-3.4,3.4s-3.4-1.5-3.4-3.4c0-1.9,1.5-3.4,3.4-3.4S171.6,128.5,171.6,130.4z"/>
	<path class="st3" d="M13.6,72.2c0,1.9-1.5,3.4-3.4,3.4s-3.4-1.5-3.4-3.4s1.5-3.4,3.4-3.4S13.6,70.3,13.6,72.2z"/>
	<path class="st4" d="M13.1,73.1L46,152c2.1,5.1,6.2,9,11.3,10.9l49.3,18.5c4.6,1.7,9.6,1.7,14.2-0.1l50.9-19.8
		c5.2-2,9.3-6.1,11.3-11.3l31.4-80c3.1-7.9,0.8-16.9-5.6-22.3L163.6,9.4c-4.4-3.8-10.3-5.4-16-4.5l-90,14.4
		c-3.8,0.6-7.3,2.3-10.2,4.9L18.1,50.8C11.9,56.4,9.9,65.4,13.1,73.1z"/>
</g>
</svg>
