<?xml version="1.0" encoding="utf-8"?>
<svg version="1.1" xmlns="http://www.w3.org/2000/svg" xmlns:xlink="http://www.w3.org/1999/xlink" x="0px" y="0px"
	 viewBox="0 0 253.7 221" style="enable-background:new 0 0 253.7 221;" xml:space="preserve">
<style type="text/css">
	.st0{display:none;}
	.st1{display:inline;fill:#FFC107;}
	.st2{fill:none;stroke:#FFC107;stroke-width:3;stroke-linecap:round;stroke-linejoin:round;stroke-miterlimit:10;}
	.st3{fill:none;stroke:#000000;stroke-width:3;stroke-linecap:round;stroke-linejoin:round;stroke-miterlimit:10;}
	.st4{fill:none;stroke:#FFC107;stroke-width:2;stroke-linecap:round;stroke-linejoin:round;stroke-miterlimit:10;}
</style>
<g id="BACKGROUND" class="st0">
</g>
<g id="Layer_3" class="st0">
	<path class="st1" d="M223.1,173.2l42.5,121.4c2.3,6.7,9.3,10.5,16.2,8.8l110.8-26.6c4.8-1.1,8.6-4.8,10-9.5l20.2-68.5
		c1-3.4,0.7-7-0.9-10.1l-26.3-52c-2.7-5.4-8.7-8.4-14.7-7.3l-147.1,25.7C225.4,156.6,220.3,165.2,223.1,173.2z"/>
</g>
<g id="OBJECTS_1_">
	<g>
		<g>
			<line class="st2" x1="41.3" y1="171.3" x2="41.3" y2="180.6"/>
			<line class="st2" x1="46" y1="176" x2="36.6" y2="176"/>
		</g>
		<g>
			<line class="st2" x1="208.8" y1="32.7" x2="215.4" y2="39.3"/>
			<line class="st2" x1="215.4" y1="32.7" x2="208.8" y2="39.3"/>
		</g>
		<path class="st3" d="M212.8,165.2c0,1.9-1.5,3.4-3.4,3.4c-1.9,0-3.4-1.5-3.4-3.4s1.5-3.4,3.4-3.4
			C211.3,161.8,212.8,163.3,212.8,165.2z"/>
		<path class="st3" d="M20.2,103.8c0,1.9-1.5,3.4-3.4,3.4c-1.9,0-3.4-1.5-3.4-3.4c0-1.9,1.5-3.4,3.4-3.4
			C18.7,100.4,20.2,101.9,20.2,103.8z"/>
		<path class="st4" d="M19.7,81.7l32.9,78.9c2.1,5.1,6.2,9,11.3,10.9l49.3,18.5c4.6,1.7,9.6,1.7,14.2-0.1l50.9-19.8
			c5.2-2,9.3-6.1,11.3-11.3L221,78.8c3.1-7.9,0.8-16.9-5.6-22.3L170.2,18c-4.4-3.8-10.3-5.4-16-4.5l-90,14.4
			c-3.8,0.6-7.3,2.3-10.2,4.9L24.7,59.4C18.5,65,16.5,74,19.7,81.7z"/>
	</g>
</g>
</svg>
