<?xml version="1.0" encoding="utf-8"?>
<svg version="1.1" id="Layer_1" xmlns="http://www.w3.org/2000/svg" xmlns:xlink="http://www.w3.org/1999/xlink" x="0px" y="0px"
	 viewBox="0 0 211.4 82.1" style="enable-background:new 0 0 211.4 82.1;" xml:space="preserve">
<path d="M10.6,8.6c61.6,0,123.2,0,184.8,0c1.1,0.5,2.3,0.9,3.3,1.5c2,1.2,2.9,3.3,3.6,5.4c0,1,0,1.9,0,2.9c-0.5,1.3-0.9,2.5-1.4,3.8
	c-4.3,10.4-8.6,20.9-12.9,31.3c-1.5,3.5-4.1,5.4-7.9,5.7c-1.2,0.1-2.4,0.2-3.6,0.3c-8.3,0.8-16.6,1.7-24.9,2.5
	c-7.5,0.8-14.9,1.5-22.4,2.3c-8.3,0.8-16.7,1.7-25,2.5c-7.4,0.8-14.9,1.5-22.3,2.3c-8.3,0.8-16.6,1.7-24.9,2.5
	c-8.3,0.8-16.5,1.6-24.8,2.5c-4.9,0.5-8.3-1.4-10-6.1C16,51.6,9.8,35.1,3.7,18.5c0-0.9,0-1.8,0-2.6c0.6-2.4,1.7-4.5,4-5.9
	C8.6,9.4,9.6,9.1,10.6,8.6z"/>
</svg>
