<svg xmlns="http://www.w3.org/2000/svg" xmlns:xlink="http://www.w3.org/1999/xlink" id="Layer_1" x="0px" y="0px" viewBox="0 0 250 250" style="enable-background:new 0 0 250 250;" xml:space="preserve"><style type="text/css">	.st0{fill:#563D7C;}	.st1{fill:#FFFFFF;}</style><path class="st0" d="M42.3,186.4c0,11.8,9.6,21.3,21.3,21.3h122.7c11.8,0,21.3-9.6,21.3-21.3V63.6c0-11.8-9.6-21.3-21.3-21.3H63.6  c-11.8,0-21.3,9.6-21.3,21.3V186.4L42.3,186.4z"></path><path class="st1" d="M110.9,115.4V92h20.6c2,0,3.9,0.2,5.7,0.5c1.8,0.4,3.4,0.9,4.9,1.7c1.4,0.8,2.6,2,3.3,3.5  c0.8,1.5,1.3,3.4,1.3,5.8c0,4.2-1.3,7.3-3.8,9.1c-2.6,1.8-5.8,2.8-9.6,2.8L110.9,115.4L110.9,115.4z M88.9,74.9v100.1h48.6  c4.5,0,8.9-0.6,13-1.7c4.2-1.1,8-2.8,11.4-5.1c3.3-2.4,6-5.3,7.9-9c2-3.7,2.9-8,2.9-13c0-6.2-1.5-11.6-4.6-16.1  c-3-4.4-7.7-7.5-13.8-9.3c4.5-2.1,7.9-4.9,10.2-8.3c2.3-3.4,3.4-7.6,3.4-12.7c0-4.7-0.8-8.6-2.4-11.8c-1.6-3.2-3.7-5.8-6.5-7.7  c-2.8-1.9-6.2-3.3-10.1-4.1c-3.9-0.8-8.3-1.3-13-1.3L88.9,74.9L88.9,74.9z M110.9,158v-27.5h24c4.8,0,8.6,1.1,11.5,3.3  c2.9,2.2,4.3,5.9,4.3,11c0,2.7-0.5,4.8-1.4,6.4c-0.8,1.7-2,3-3.6,3.9c-1.5,1-3.2,1.7-5.1,2.1c-1.9,0.4-4,0.6-6.2,0.6L110.9,158  L110.9,158z"></path></svg>