<svg xmlns="http://www.w3.org/2000/svg" xmlns:xlink="http://www.w3.org/1999/xlink" id="Layer_1" x="0px" y="0px" viewBox="0 0 250 250" style="enable-background:new 0 0 250 250;" xml:space="preserve">
<style type="text/css">
	.st0{fill:#BF6C96;}
</style>
<path class="st0" d="M184.5,130.4c-5.5,0-10.3,1.4-14.3,3.3c-1.5-2.9-2.9-5.5-3.2-7.4c-0.3-2.2-0.6-3.6-0.3-6.2  c0.3-2.6,1.9-6.4,1.9-6.7c0-0.3-0.3-1.6-3.5-1.7c-3.2,0-5.9,0.6-6.2,1.4s-0.9,2.7-1.3,4.7c-0.5,2.9-6.3,13.1-9.6,18.5  c-1.1-2.1-2-3.9-2.2-5.4c-0.3-2.2-0.6-3.6-0.3-6.2c0.3-2.6,1.9-6.4,1.9-6.7c0-0.3-0.3-1.6-3.5-1.7s-5.9,0.6-6.2,1.4  c-0.3,0.8-0.7,2.8-1.3,4.7c-0.7,1.9-8.3,19-10.3,23.5c-1,2.3-1.9,4.1-2.6,5.3l0,0c0,0,0,0.1-0.1,0.2c-0.5,1.1-0.9,1.6-0.9,1.6  s0,0,0,0c-0.4,0.8-0.9,1.5-1.1,1.5c-0.2,0-0.5-2.1,0.1-4.9c1.1-6,3.9-15.2,3.9-15.5c0-0.2,0.5-1.8-1.8-2.6c-2.2-0.8-3,0.5-3.2,0.5  s-0.3,0.5-0.3,0.5s2.5-10.4-4.8-10.4c-4.5,0-10.8,5-13.9,9.5c-2,1.1-6.1,3.3-10.6,5.8c-1.7,0.9-3.4,1.9-5.1,2.8  c-0.1-0.1-0.2-0.3-0.3-0.4c-8.8-9.4-25.1-16-24.4-28.7C61,106.7,62.6,94.7,92,80c24.2-11.9,43.5-8.6,46.8-1.3  c4.8,10.5-10.3,29.9-35.3,32.7c-9.5,1.1-14.5-2.6-15.8-4c-1.3-1.4-1.5-1.5-2-1.2c-0.8,0.4-0.3,1.7,0,2.5c0.7,2,3.8,5.4,9,7.1  c4.6,1.5,15.8,2.3,29.3-2.9c15.2-5.9,27-22.2,23.5-35.8c-3.5-13.9-26.5-18.4-48.2-10.7c-12.9,4.6-27,11.8-37.1,21.3  c-12,11.2-13.9,21-13.1,25c2.8,14.5,22.8,23.9,30.8,30.9c-0.4,0.2-0.8,0.4-1.1,0.6c-4,2-19.2,9.9-23,18.4c-4.3,9.5,0.7,16.4,4,17.3  c10.3,2.8,20.8-2.3,26.5-10.7c5.7-8.5,5-19.4,2.4-24.5c0-0.1-0.1-0.1-0.1-0.2c1-0.6,2.1-1.2,3.1-1.8c2-1.2,4.1-2.3,5.8-3.2  c-1,2.7-1.7,5.9-2,10.5c-0.4,5.4,1.8,12.4,4.7,15.2c1.3,1.2,2.8,1.2,3.8,1.2c3.4,0,4.9-2.8,6.6-6.2c2.1-4.1,3.9-8.8,3.9-8.8  s-2.3,12.8,4,12.8c2.3,0,4.6-3,5.7-4.5c0,0,0,0,0,0s0.1-0.1,0.2-0.3c0.2-0.4,0.4-0.6,0.4-0.6s0,0,0-0.1c0.9-1.6,3-5.3,6.1-11.3  c4-7.8,7.8-17.6,7.8-17.6s0.3,2.4,1.5,6.4c0.7,2.3,2.1,4.9,3.3,7.4c-0.9,1.3-1.5,2-1.5,2s0,0,0,0c-0.7,1-1.6,2-2.4,3.1  c-3.1,3.7-6.9,8-7.4,9.3c-0.6,1.5-0.5,2.5,0.7,3.4c0.8,0.6,2.3,0.7,3.9,0.6c2.8-0.2,4.8-0.9,5.8-1.3c1.5-0.5,3.3-1.4,5-2.6  c3.1-2.3,4.9-5.5,4.8-9.8c-0.1-2.4-0.9-4.7-1.8-6.9c0.3-0.4,0.5-0.8,0.8-1.2c4.9-7.1,8.6-14.9,8.6-14.9s0.3,2.4,1.5,6.4  c0.6,2,1.8,4.2,2.8,6.3c-4.6,3.7-7.4,8-8.4,10.8c-1.8,5.2-0.4,7.6,2.3,8.1c1.2,0.3,2.9-0.3,4.2-0.9c1.6-0.5,3.5-1.4,5.3-2.7  c3.1-2.3,6-5.4,5.9-9.7c-0.1-2-0.6-3.9-1.3-5.7c3.9-1.6,8.9-2.5,15.3-1.8c13.7,1.6,16.4,10.1,15.9,13.7c-0.5,3.6-3.4,5.5-4.3,6.2  c-0.9,0.6-1.3,0.8-1.2,1.2c0.1,0.6,0.6,0.6,1.4,0.5c1.1-0.2,7.2-2.9,7.4-9.5C206.8,139.6,198.8,130.4,184.5,130.4z M79,166  c-4.5,4.9-10.9,6.8-13.6,5.2c-2.9-1.7-1.8-9,3.8-14.2c3.4-3.2,7.8-6.2,10.7-8c0.7-0.4,1.6-1,2.8-1.7c0.2-0.1,0.3-0.2,0.3-0.2l0,0  c0.2-0.1,0.5-0.3,0.7-0.4C85.7,154.3,83.7,160.8,79,166z M112,143.6c-1.6,3.9-4.9,13.7-6.9,13.2c-1.7-0.5-2.8-7.9-0.3-15.3  c1.2-3.7,3.9-8.1,5.4-9.9c2.5-2.8,5.2-3.7,5.9-2.6C116.8,130.4,113,141.1,112,143.6z M139.3,156.6c-0.7,0.3-1.3,0.6-1.6,0.4  c-0.2-0.1,0.3-0.6,0.3-0.6s3.4-3.7,4.8-5.3c0.8-1,1.7-2.1,2.7-3.4c0,0.1,0,0.3,0,0.4C145.5,152.4,141.2,155.4,139.3,156.6z   M160.3,151.8c-0.5-0.3-0.4-1.5,1.2-5.1c0.6-1.4,2.1-3.8,4.7-6c0.3,0.9,0.5,1.8,0.5,2.6C166.7,148.9,162.7,150.9,160.3,151.8z"></path>
</svg>